<svg viewBox="0 0 1180 315" fill="none" xmlns="http://www.w3.org/2000/svg">
<g clip-path="url(#clip0_32_2)">
<path fill-rule="evenodd" clip-rule="evenodd" d="M259.2 80.4602L259.05 80.9102C258.61 82.6102 259.25 79.7702 258.94 81.3602L257.28 94.8002C256.53 99.3402 255.67 104 254.5 108.33C252.445 116.465 249.423 124.324 245.5 131.74C240.035 141.968 232.615 151.023 223.66 158.39C220.657 160.88 217.53 163.217 214.29 165.39C208.71 169.32 199.52 173.79 193.02 176.52C154.89 192.52 111.51 186.04 78.61 162.64C75.4575 160.405 72.4513 157.97 69.61 155.35C33.94 123.35 36.61 71.8302 37.47 25.9702C37.57 20.5802 37.59 15.3202 37.59 9.89022C37.59 6.64022 37.79 2.74022 34.36 1.00022C33.49 0.560219 31.92 0.330219 31.36 0.0502188H11.52C4 0.000218757 0 0.320218 0 8.40022V88.0802C0.24806 94.1165 0.896149 100.13 1.94 106.08C2.74 110.08 3.54 114.28 4.66 118.24C7.0529 126.804 10.3166 135.101 14.4 143C17.79 149.76 26.4 163.15 31.4 168.26L45.2 182.06C49 185.67 58.06 192 62.41 194.63C64.53 195.9 66.58 197.07 68.81 198.32C73.2198 200.691 77.768 202.795 82.43 204.62C101.38 212.22 126.38 215.62 151.21 211.44C176.04 207.26 194.27 197.54 211.07 184.44L215.07 181.04C218.39 177.81 224.69 172.14 227.48 168.5L232 163.1C235.675 158.364 239.016 153.379 242 148.18L250.19 131.42C256.6 115.47 259.2 98.0502 259.2 80.4602Z" fill="#005C97"/>
<path fill-rule="evenodd" clip-rule="evenodd" d="M893.29 82.5598V166.8C893.29 169.11 892.83 171.8 894.01 171.8H919.01C919.56 171.8 919.73 171.63 919.73 171.08V100.56C920.83 100.56 922.37 100.23 923.37 100.12C932.31 99.1198 940.17 99.3098 942.72 109.72C944.21 115.82 943.97 122.35 943.97 129.84C943.97 142.61 944.17 156.97 943.97 169.69C943.97 170.76 943.68 171.84 944.7 171.84H969.7C970.25 171.84 970.42 171.67 970.42 171.12V120.48C970.42 116.34 970.03 109.11 968.98 105.12C968.745 104.501 968.584 103.856 968.5 103.2C971.02 102.53 973.38 99.8397 981.7 99.8397C984.551 99.7823 987.328 100.755 989.52 102.58C995.42 107.12 994.66 122.87 994.66 129.58C994.66 142.43 994.86 156.87 994.66 169.67C994.66 170.74 994.37 171.82 995.39 171.82H1020.39C1020.94 171.82 1021.11 171.65 1021.11 171.1V120C1021.11 103.6 1018.57 87.5398 1002.39 80.3898C992.55 76.0498 979.5 76.4598 969.17 80.0698C967.149 80.7724 965.175 81.6041 963.26 82.5598C961.6 83.3798 958.47 85.5598 957.75 85.6798C953.75 83.0198 953 81.6798 947.22 79.6798C936.66 75.8898 921.22 77.2197 910.5 79.0197C903.81 80.0997 899.54 81.0998 893.29 82.5598Z" fill="#054C7D"/>
<path fill-rule="evenodd" clip-rule="evenodd" d="M284.16 129.12C284.16 145.12 288.06 157.2 297.16 164.12C305.26 170.35 321.29 173.48 335.8 173.48C351.61 173.48 364.05 172.48 379.06 168.97C379.94 168.77 380.92 168.82 380.92 167.97V45.6002C380.92 45.0502 380.76 44.8802 380.2 44.8802H352.8C351.8 44.8802 352.06 46.1702 352.08 47.2802C352.3 63.4202 352.08 81.0102 352.08 97.2002V150.48C349.99 150.65 347.36 151.18 345.13 151.21C335.55 151.33 326.56 151.47 319.13 144.75C315.82 141.75 313.13 134.75 313.13 129.36V44.1602H284.13L284.16 129.12Z" fill="#828382"/>
<path fill-rule="evenodd" clip-rule="evenodd" d="M526.32 107.76C526.32 120.61 526.63 127.87 530.97 140.07C533.77 147.771 538.368 154.692 544.38 160.26L546.45 162.04C547.847 163.139 549.299 164.167 550.8 165.12C567.91 176.49 595.51 175.91 614.3 170.54C618.918 169.225 623.378 167.407 627.6 165.12C627.181 163.254 626.595 161.43 625.85 159.67L620.16 143C619.118 143.316 618.112 143.742 617.16 144.27C607.25 148.52 599.81 149.72 588.29 149.72C583.205 149.723 578.172 148.703 573.49 146.72C557.6 139.31 554.93 124.38 554.93 108.16C554.93 94.4299 560.27 81.2799 572.85 74.9599C578.59 72.0799 583.3 71.6799 589.97 71.6799C599.766 71.8293 609.382 74.3404 618 78.9999C618.62 76.3799 625.28 59.4399 625.92 56.6799C623.441 55.251 620.88 53.9688 618.25 52.8399C597.47 44.6499 571.6 45.1299 552.44 57.1099C550.895 58.0873 549.412 59.1593 548 60.3199C547.298 60.8716 546.63 61.4661 546 62.0999C545.27 62.8299 544.72 63.0999 543.95 63.8999C532.8 74.9999 526.32 91.9399 526.32 107.76Z" fill="#054C7D"/>
<path fill-rule="evenodd" clip-rule="evenodd" d="M140.1 179.76C142.5 180.76 154.7 180.13 158.01 179.84C176.52 178.17 198.65 170.35 212.91 159.63C216.451 156.967 219.821 154.085 223 151C226.182 147.934 229.165 144.667 231.93 141.22C237.14 134.71 243.08 125.81 246.07 117.68C247.821 112.97 249.258 108.15 250.37 103.25C256.37 76.7099 254.56 42.1099 253.79 14.2499C253.68 10.1299 254.53 4.34988 252.01 1.96988C250.76 0.749881 250.25 0.999881 248.82 0.239881H230.88C224.73 0.239881 220.15 -0.760119 219.01 6.36988C218.57 9.14988 218.88 75.5299 218.88 78.2399C218.88 90.8099 219.04 101.82 216.94 112.3C216.044 117.061 214.674 121.721 212.85 126.21C209.62 134.1 202.51 143.97 196.38 150.06L194.11 152.34C190.39 156.1 182.81 161.72 178.95 164.34C175.5 166.65 173.11 167.65 170.45 169.28C164.04 173.18 149.51 177.85 142.06 179.28L140.1 179.76Z" fill="#828382"/>
<path fill-rule="evenodd" clip-rule="evenodd" d="M670.08 98.6401C677.74 98.6401 683.08 102.76 685.42 108.99C686.42 111.69 686.61 115.59 686.88 116.16H652.56C652.64 112.94 655.11 106.3 657.66 103.73C659.245 102.041 661.174 100.713 663.317 99.8346C665.459 98.9564 667.766 98.5491 670.08 98.6401ZM625.44 126.24C625.432 133.225 626.637 140.157 629 146.73C630.986 152.311 634.242 157.353 638.51 161.46C651.92 174.87 672.27 175.84 691.77 172.59C694.437 172.186 697.079 171.625 699.68 170.91L706.85 168.48L704.25 152.61C703.864 150.801 703.61 148.966 703.49 147.12C702.591 147.205 701.72 147.473 700.93 147.91C698.313 148.79 695.64 149.495 692.93 150.02C681.06 152.4 662.11 153.4 655.09 141.74C654.09 140.01 652.59 136.74 652.59 134.16H711.15C712.15 134.16 711.88 133.26 711.88 132.24L712.35 124.32C712.35 112.98 710.21 101.98 703.91 92.6801C703.06 91.4301 702.27 90.6801 701.35 89.4801C698.35 85.7101 692.35 81.9601 687.7 80.0901C681.488 77.6428 674.814 76.588 668.15 77.0001C663.27 77.4001 663.53 77.0001 658.27 78.4001C655.386 79.1698 652.588 80.232 649.92 81.5701C644.17 84.4401 641.11 87.3501 637.02 91.7101C636.56 92.2001 636.16 92.7601 635.73 93.3001C628.55 102.31 625.44 114.66 625.44 126.24Z" fill="#054C7D"/>
<path fill-rule="evenodd" clip-rule="evenodd" d="M1055.05 143.52C1055.05 139.12 1055.7 136.28 1060.21 134.04C1064.72 131.8 1072.95 131.62 1078.5 132.31C1079.8 132.47 1081.79 132.85 1083.13 132.96V152.64C1081.88 152.64 1080 153.01 1078.79 153.11C1077.23 153.24 1075.62 152.97 1074.07 153.19C1071.07 153.479 1068.05 153.388 1065.07 152.92C1059.63 151.99 1055.07 149.78 1055.07 143.52H1055.05ZM1037.53 81.3598L1040.65 102.48L1045.87 100.99C1047.49 100.59 1049.87 100.16 1051.52 99.9098C1059.67 98.7198 1075.83 96.5698 1080.96 105.13C1083.11 108.72 1083.13 111.07 1083.13 115.68C1082.13 115.6 1081.13 115.29 1080.13 115.1C1075.57 114.424 1070.96 114.136 1066.35 114.24C1048.5 114.24 1028.91 121.95 1028.91 141.84C1028.91 149.58 1029.52 154.68 1033.65 160.84C1038.78 168.5 1048.31 171.62 1057.12 172.9C1061.53 173.476 1065.98 173.76 1070.43 173.75C1071.58 173.69 1072.08 173.5 1073.54 173.51C1084.32 173.57 1094.85 171.82 1105.29 169.73C1106.29 169.433 1107.31 169.252 1108.35 169.19V111.84C1108.35 104.24 1106.35 96.0898 1102.4 90.1898C1098.75 84.7098 1092.34 80.8798 1085.93 79.0598C1081.06 77.6477 1076 76.9735 1070.93 77.0598C1069.82 76.9035 1068.71 76.8233 1067.59 76.8198C1065.74 76.9798 1062.76 76.9998 1061.03 77.2198C1058.83 77.5098 1057.03 77.5598 1054.93 77.8398C1053 78.0998 1050.82 78.3998 1048.86 78.7298C1046.9 79.0598 1044.86 79.4298 1043.05 79.8798C1041.18 80.2393 1039.33 80.734 1037.53 81.3598Z" fill="#054C7D"/>
<path fill-rule="evenodd" clip-rule="evenodd" d="M394.56 83.2798V171.12C394.56 171.67 394.73 171.84 395.28 171.84H420.28C420.84 171.84 421 171.67 421 171.12V100.56C422.49 100.56 426.56 99.8398 429.88 99.8398C435 99.8398 438.24 99.4598 442.47 102.38C444.47 103.74 445.96 106.53 446.64 109C448.3 115.06 448.12 121.51 448.12 129.12C448.12 142.12 448.33 156.75 448.12 169.69C448.12 170.76 447.83 171.84 448.84 171.84H473.84C474.4 171.84 474.56 171.67 474.56 171.12V120.24C474.56 108.92 473.07 98.4798 466.56 89.7898L462.83 85.8498C462.426 85.4516 462.002 85.0745 461.56 84.7198C452.39 78.1998 443.56 77.2798 431.79 77.2798C418.68 77.2798 408.36 79.3498 396.31 82.1198C395.6 82.2798 394.56 82.3198 394.56 83.2798Z" fill="#828382"/>
<path fill-rule="evenodd" clip-rule="evenodd" d="M799.92 133.44C799.956 139.178 800.794 144.884 802.41 150.39C804.09 155.49 806.04 159.45 809.35 162.9C809.707 163.34 810.088 163.761 810.49 164.16C810.99 164.59 811.23 164.79 811.74 165.3C817.27 170.84 829.23 173.76 837.6 173.76C852.11 173.76 857.73 173.23 871.55 170.5L878 169C878.83 168.78 879.65 168.85 879.65 168V79.4399H853.2V150.44C851.41 150.59 849.08 150.99 847.2 151.15C843.2 151.47 838.41 151.55 834.76 150.15C826.21 146.91 826.09 134.3 826.09 124.26V79.4399H799.92V133.44Z" fill="#054C7D"/>
<path fill-rule="evenodd" clip-rule="evenodd" d="M206.16 116.87C204.9 117.96 200.59 124.27 194.35 129.3C178.9 141.77 160.21 147.66 138.72 145.92C122.63 144.62 106.39 137.92 95.5501 128.61C93.2936 126.806 91.1682 124.845 89.1901 122.74C85.2601 118.19 81.9001 114.33 78.9401 108.74C73.0001 97.4898 69.0601 84.9998 69.5201 69.5998C69.8049 56.3972 73.7818 43.5382 81.0001 32.4798C87.5407 22.7391 96.8165 15.1507 107.66 10.6698C121.39 4.75981 133.66 4.13981 150.03 4.85981C149.7 4.59981 150.03 4.77981 149.54 4.57981L144.1 3.52981C142.1 3.19981 139.55 2.97981 137.49 2.70981C136.33 2.54981 135.17 2.70981 134.02 2.56981C131.15 2.17981 126.63 2.66981 123.63 2.86981C108.85 3.86981 92.9001 10.6298 81.4901 19.5398C80.7601 20.1098 80.2001 20.5998 79.4901 21.1498C77.5601 22.6798 75.5801 24.7698 74.7001 25.4798C74.3192 25.7313 73.9612 26.0157 73.6301 26.3298L66.7101 34.3298C65.6001 35.7098 64.7101 37.0098 63.7101 38.5398C56.2911 49.5827 51.6839 62.2717 50.2896 75.502C48.8953 88.7323 50.7561 102.103 55.7101 114.45C58.7976 121.939 62.9432 128.947 68.0201 135.26L73.2201 141.1C86.5401 154.41 103.73 163.18 122.64 165.1L129.56 165.63C136.286 165.698 142.997 164.99 149.56 163.52C153.385 162.653 157.144 161.521 160.81 160.13C168.34 157.42 180.1 150.5 185.81 144.8C186.54 144.06 187.09 143.8 187.86 143C190.387 140.558 192.765 137.967 194.98 135.24C196.08 133.84 197.07 132.63 198.09 131.16C200.21 128.08 205.5 119.79 206.16 116.87Z" fill="#005C97"/>
<path fill-rule="evenodd" clip-rule="evenodd" d="M722.16 104.4C722.16 114.84 724.88 120.73 731.84 126.65C738.41 132.24 751.97 135.55 759.68 139.84C760.766 140.368 761.775 141.041 762.68 141.84C764.88 144.01 764.68 144.46 764.68 147.07C764.654 148.014 764.357 148.93 763.825 149.71C763.293 150.49 762.549 151.101 761.68 151.47C758.29 152.9 752.45 152.59 748.63 152.59C742.77 152.59 729.63 149.69 724.15 147.07C724.07 147.958 723.902 148.835 723.65 149.69L722.01 157.69C721.65 159.54 721.31 161.19 720.9 163.05L719.83 168.47C722.085 169.483 724.428 170.286 726.83 170.87C729.26 171.54 731.83 172.23 734.33 172.73C749.92 175.86 777.33 175.44 786.98 160.94C791.64 153.94 791.98 143.16 789.45 135.62C784.31 120.27 762.67 117.16 752.45 110.98C750.24 109.64 748.23 108.28 748.23 104.87C748.23 95.54 766.87 98.22 772.46 99.37C775.807 100.089 779.098 101.045 782.31 102.23C782.844 100.597 783.252 98.9255 783.53 97.23C784.1 94.51 786.87 83.3 786.87 81.61C785.32 81.25 783.87 80.61 782.32 80.17C780.77 79.73 779.04 79.39 777.47 79.02C774.002 78.2337 770.488 77.6593 766.95 77.3L758.55 76.79C757.37 76.79 757.08 77.06 755.68 77.06C747.68 77.06 738.68 79.44 732.49 84.06C729.274 86.3843 726.66 89.4421 724.863 92.9797C723.067 96.5173 722.14 100.432 722.16 104.4Z" fill="#054C7D"/>
<path fill-rule="evenodd" clip-rule="evenodd" d="M1122.49 84.2402V167C1122.49 167.88 1122.49 168.77 1122.49 169.65C1122.49 170.72 1122.2 171.8 1123.22 171.8H1148.22C1149.37 171.8 1148.94 169.69 1148.94 167.48V104.88C1148.94 104.06 1148.87 102.99 1148.94 102.21C1149 100.9 1149.1 101.13 1150.29 100.92C1157.11 99.7102 1162.39 99.3902 1169.39 100.78C1172.47 101.39 1175.33 102.04 1178.25 102.72C1178.76 100.918 1179.1 99.0686 1179.25 97.2002V80.4002C1179.25 79.4002 1177.25 79.4002 1175.54 79.0602C1157.96 75.9002 1143.62 77.6102 1126.66 83.0602C1125.26 83.4202 1123.7 84.0002 1122.49 84.2402Z" fill="#054C7D"/>
<path fill-rule="evenodd" clip-rule="evenodd" d="M259.2 80.46C259.2 77.67 259.63 74.46 259.69 72.46L260.17 41.25C260.17 39.14 259.92 37.76 259.92 35.49C259.92 27.6 259.68 20.49 259.68 12.69C259.68 4.06 260.02 0.21 248.82 0.21C250.25 0.96 250.76 0.72 252 1.9C254.52 4.28 253.67 10.06 253.78 14.18C254.55 42.06 256.35 76.66 250.36 103.18C249.248 108.08 247.811 112.9 246.06 117.61C243.06 125.74 237.13 134.61 231.92 141.15C229.161 144.621 226.181 147.911 223 151C219.825 154.092 216.458 156.981 212.92 159.65C198.66 170.37 176.53 178.19 158.02 179.86C154.71 180.15 142.51 180.8 140.11 179.78C137.448 179.688 134.797 179.39 132.18 178.89C129.52 178.45 126.9 177.99 124.52 177.43C117.542 175.786 110.722 173.531 104.14 170.69L94.8901 166.26C88.8101 162.86 83.9501 160.36 78.3101 155.73C77.4201 154.99 76.6501 154.45 75.7901 153.68C75.2801 153.22 75.0901 153.15 74.6001 152.68C74.1101 152.21 73.8801 151.91 73.3801 151.49L68.7101 147.04C62.7101 141.11 55.7101 130.04 52.4301 122.28C46.5801 108.28 43.7701 93.28 42.9701 77.28L42.4901 68.64C42.4901 65.54 42.4901 62.5 42.2701 59.75C42.0101 56.75 42.5101 53.87 42.5001 51.12C42.5001 48.12 42.5001 45.04 42.5001 42C42.5001 35.74 43.7401 10.17 43.1401 6.33C42.2701 0.91 36.3401 0 31.3501 0C31.9001 0.28 33.4701 0.51 34.3501 1C37.7801 2.74 37.5801 6.64 37.5801 9.89C37.5801 15.32 37.5801 20.58 37.4601 25.97C36.5701 71.83 33.9301 123.39 69.6001 155.35C72.4414 157.97 75.4476 160.405 78.6001 162.64C111.52 186 154.9 192.51 193 176.47C199.5 173.74 208.69 169.27 214.27 165.34C217.51 163.167 220.637 160.83 223.64 158.34C232.595 150.972 240.015 141.918 245.48 131.69C249.403 124.274 252.425 116.415 254.48 108.28C255.65 103.95 256.48 99.28 257.26 94.75L258.92 81.31C259.23 79.72 258.59 82.56 259.03 80.86L259.2 80.46Z" fill="white"/>
<path fill-rule="evenodd" clip-rule="evenodd" d="M72.7199 70.7599C73.1799 65.7599 79.2699 54.4499 82.9399 49.5799C84.2199 47.7643 85.641 46.0523 87.1899 44.4599C88.6889 42.7618 90.2956 41.1618 91.9999 39.6699C94.2524 37.7255 96.6382 35.9411 99.1399 34.3299C109.33 28.2599 115.06 26.1599 127.28 24.5399L133.21 24.2399C134.89 24.3399 137.3 24.5699 138.98 24.7099C145.735 25.3779 152.288 27.3944 158.25 30.6399C160.989 32.0245 163.585 33.6758 166 35.5699C170.31 39.1299 173.51 41.8799 176.94 46.4699C177.72 47.5199 177.82 47.3099 179.49 47.2899C187.95 47.1799 196.49 47.2899 204.93 47.2899C204.79 45.5299 199.71 38.2899 198.03 36.6699C197.062 35.6273 196.16 34.5252 195.33 33.3699C185.45 20.9063 172.119 11.6272 157 6.6899C155.454 6.11313 153.87 5.64205 152.26 5.2799C152.13 5.2799 145.49 4.8199 144.26 4.8199C126.16 4.7999 109.17 8.9999 95.3899 20.2599C84.8528 29.0974 77.5041 41.1462 74.4699 54.5599C73.8899 56.9999 71.7399 68.9999 72.7199 70.7599Z" fill="#828382"/>
<path fill-rule="evenodd" clip-rule="evenodd" d="M487.2 171.12C487.2 171.67 487.37 171.84 487.92 171.84H512.92C513.48 171.84 513.64 171.67 513.64 171.12V79.4399H487.2V171.12Z" fill="#828382"/>
<path fill-rule="evenodd" clip-rule="evenodd" d="M206.16 116.87C206.55 116.31 206.45 116.63 206.64 115.93L201.64 120.74C199.944 122.338 198.154 123.834 196.28 125.22C192.525 128.138 188.508 130.703 184.28 132.88C176.72 136.7 164.38 141.48 154.36 142.06C147.06 142.26 144.49 143.06 136.08 142.12C125 140.87 114.65 137.75 105.45 131.95C102.501 130.178 99.6982 128.171 97.0701 125.95C93.2068 122.606 89.7347 118.835 86.7201 114.71C79.7201 105.45 74.5501 91.92 73.2401 80.18C72.8934 77.0589 72.7331 73.92 72.7601 70.78C71.7601 69.01 73.9301 57.01 74.5101 54.58C77.5442 41.1663 84.8929 29.1175 95.4301 20.28C109.17 8.99996 126.16 4.79995 144.25 4.81995C145.48 4.81995 152.12 5.31995 152.25 5.27995C151.54 4.97649 150.772 4.8331 150 4.85995C133.61 4.13995 121.36 4.75995 107.63 10.67C96.7975 15.1559 87.5327 22.7438 81.0001 32.48C73.7818 43.5383 69.8049 56.3973 69.5201 69.6C69.0601 85 73.0001 97.49 78.9401 108.75C81.9401 114.33 85.2601 118.19 89.1901 122.75C91.1682 124.855 93.2936 126.817 95.5501 128.62C106.39 137.92 122.63 144.62 138.72 145.93C160.21 147.67 178.9 141.78 194.35 129.31C200.59 124.27 204.9 118 206.16 116.87Z" fill="white"/>
<path fill-rule="evenodd" clip-rule="evenodd" d="M500.4 68.4001C508.72 68.4001 516 62.1801 516 54.2401C516 48.7901 515.65 45.8601 511.74 41.9401C510.539 40.696 509.123 39.6796 507.56 38.9401C498.56 34.6601 486.2 39.4401 484.86 50.0001C483.48 60.9001 490.51 68.4001 500.4 68.4001Z" fill="#828382"/>
<path fill-rule="evenodd" clip-rule="evenodd" d="M154.32 142.06C164.32 141.48 176.68 136.7 184.24 132.88C188.468 130.703 192.485 128.139 196.24 125.22C198.114 123.834 199.904 122.338 201.6 120.74L206.6 115.93C207.12 115.56 206.92 115.88 207.08 115.2C205.86 116.02 203.49 115.68 201.08 115.68H181C180.55 116.36 180.29 116.91 179.85 117.68C175.12 125.56 170.51 131.61 162.77 137.07C160.29 138.76 154.47 141.94 154.32 142.06Z" fill="#828382"/>
<path fill-rule="evenodd" clip-rule="evenodd" d="M1065.85 221C1065.85 222.05 1066.85 221.72 1069.21 221.72C1070.21 221.72 1069.95 220.64 1069.93 219.57V211C1070.83 211.66 1073.17 215.15 1073.93 216.33C1074.59 217.33 1075.08 218.08 1075.7 219.11C1077.6 222.26 1076.63 221.8 1079.98 221.8C1080.53 221.8 1080.7 221.63 1080.7 221.08V205.2C1080.7 204.09 1079.35 204.48 1076.62 204.48V214.08C1075.93 213.58 1070.08 204.48 1068.7 204.48H1065.82L1065.85 221Z" fill="#828382"/>
<path fill-rule="evenodd" clip-rule="evenodd" d="M741.84 221C741.84 222.05 742.84 221.72 745.2 221.72C746.38 221.72 745.92 218.99 745.92 216.72V211C747.36 212 751.41 218.34 752.69 220.56C753.52 222.02 752.88 221.8 756 221.8C756.56 221.8 756.72 221.63 756.72 221.08V204.48H752.64V214.08C751.28 212.52 746.21 204.48 744.72 204.48H741.84V221Z" fill="#828382"/>
<path fill-rule="evenodd" clip-rule="evenodd" d="M583.44 213.84C583.44 210.9 584.12 207.6 587.76 207.6C593.76 207.6 593.49 218.4 588 218.4C587.395 218.424 586.791 218.322 586.227 218.102C585.663 217.881 585.151 217.546 584.722 217.118C584.294 216.689 583.959 216.177 583.738 215.613C583.518 215.049 583.416 214.445 583.44 213.84ZM587.52 222C599.67 222 599.11 204 587.76 204C585.479 204.029 583.302 204.956 581.7 206.58C577 211.35 579.1 222 587.52 222Z" fill="#828382"/>
<path fill-rule="evenodd" clip-rule="evenodd" d="M430.56 218.4H429.56V207.84C434.51 207.84 436.28 208.32 436.28 213.84C436.28 216.97 433.73 218.4 430.52 218.4H430.56ZM425.56 204.72V221.52C429.4 221.52 434.56 222.94 438.23 219.31C439.073 218.567 439.687 217.599 440 216.52C442.11 210.81 439.55 204.24 430.6 204.24C428.894 204.217 427.191 204.378 425.52 204.72H425.56Z" fill="#828382"/>
<path fill-rule="evenodd" clip-rule="evenodd" d="M957.37 218.4H956.37V207.84C959.96 207.84 963.09 207.63 963.09 213.36C963.09 216.9 960.87 218.36 957.33 218.36L957.37 218.4ZM952.37 204.72V221.52L958.61 221.76C968.16 221.76 969.51 210.85 964.79 206.46C962 203.86 955.91 203.89 952.33 204.72H952.37Z" fill="#828382"/>
<path fill-rule="evenodd" clip-rule="evenodd" d="M653 212.16H651.08V207.84H653.24C654.74 207.84 655.88 208.53 655.88 210C655.88 211.47 654.51 212.16 653 212.16ZM647 204.72V221.72C652.16 221.72 651.08 222.99 651.08 215.48H652.28C653.44 215.48 656.01 220.59 656.6 221.72H661C660.85 219.92 658 216.06 656.92 214.52C660.79 213.62 663.07 204.2 651.92 204.2C650.272 204.283 648.629 204.457 647 204.72Z" fill="#828382"/>
<path fill-rule="evenodd" clip-rule="evenodd" d="M451.92 215.52C451.92 224.02 466.08 224.82 466.08 214.8V204.48H462C462 206.98 462.41 215.89 461.44 217.36C460.47 218.83 456 219.48 456 215.28V204.48H451.92V215.52Z" fill="#828382"/>
<path fill-rule="evenodd" clip-rule="evenodd" d="M718.32 221C718.32 221.55 718.49 221.72 719.04 221.72H730.56V218.12H722.4V214.28H729.12V211H722.4V207.88H730.08V204.52H718.32V221Z" fill="#828382"/>
<path fill-rule="evenodd" clip-rule="evenodd" d="M672 221C672 221.55 672.17 221.72 672.72 221.72H683.52C684.59 221.72 684.24 220.6 684.24 218.12H676.08V214.28H682.8V211H676.08V207.88H683.08C684.08 207.88 683.8 207.13 683.8 205.24C683.8 204.69 683.64 204.52 683.08 204.52H672V221Z" fill="#828382"/>
<path fill-rule="evenodd" clip-rule="evenodd" d="M873.37 221C873.37 221.55 873.53 221.72 874.09 221.72H884.89C885.95 221.72 885.61 220.6 885.61 218.12H877.45V214.28H884.17V211H877.45V207.88H884.4C885.4 207.88 885.12 207.13 885.12 205.24C885.12 204.69 884.96 204.52 884.4 204.52H873.4L873.37 221Z" fill="#828382"/>
<path fill-rule="evenodd" clip-rule="evenodd" d="M402 221C402 221.55 402.17 221.72 402.72 221.72H413.52C414.59 221.72 414.24 220.6 414.24 218.12H406.08V214.28H412.8V211H406.08V207.88H413.52V204.52H402V221Z" fill="#828382"/>
<path fill-rule="evenodd" clip-rule="evenodd" d="M1046.17 209H1046.65C1047.06 210.79 1048.42 213 1048.57 214.76H1044C1044.43 213.875 1044.8 212.963 1045.11 212.03C1045.52 211.051 1045.87 210.049 1046.16 209.03L1046.17 209ZM1038.49 221.72C1042.49 221.72 1041.83 222.03 1042.42 220.14C1042.72 219.413 1042.93 218.655 1043.05 217.88H1049.77C1049.77 218.23 1050.47 221.72 1051.45 221.72H1055.05C1055.05 219.55 1049.56 206.78 1048.33 204.44H1044.49C1044.26 205.131 1043.98 205.8 1043.63 206.44C1042.06 210.2 1040.46 213.73 1039.18 217.59C1038.91 218.38 1038.65 218.98 1038.33 219.87C1038.01 220.76 1037.41 221.76 1038.49 221.76V221.72Z" fill="#828382"/>
<path fill-rule="evenodd" clip-rule="evenodd" d="M561.12 208.8L561.3 209.1C562.19 210.83 562.81 213.31 563.52 214.8H559C559.43 212.98 560.88 210.04 561.16 208.8H561.12ZM552.72 221.8C558.55 221.8 556.06 222.01 558 217.96H564.48C565.58 222.67 565.8 221.8 569.28 221.8C570.47 221.8 569.56 220.46 568.66 217.87L563.28 204.52H559.2C559.13 205.34 552.78 219.06 552.72 221.76V221.8Z" fill="#828382"/>
<path fill-rule="evenodd" clip-rule="evenodd" d="M918.49 208.8C918.714 209.833 919.049 210.839 919.49 211.8C919.8 212.821 920.171 213.823 920.6 214.8H916.04C916.265 213.751 916.6 212.729 917.04 211.75C917.64 210.25 917.77 209.27 918.42 208.8H918.49ZM909.85 221.8C915.53 221.8 913.06 222.26 915.13 217.96H921.61C921.79 218.73 922.07 219.47 922.29 220.16C922.91 222.16 922.63 221.8 926.41 221.8C927.48 221.8 926.88 221.08 926.56 220.22C925.01 216.07 923.22 210.57 921.29 206.76C920.885 206.062 920.589 205.307 920.41 204.52H916.33C916 206 909.9 219.1 909.85 221.76V221.8Z" fill="#828382"/>
<path fill-rule="evenodd" clip-rule="evenodd" d="M1141 208.8C1141.35 210.31 1142.75 213.05 1143.16 214.8H1138.6C1138.89 213.775 1139.25 212.772 1139.69 211.8C1139.93 211.17 1140.07 210.74 1140.27 210.21C1140.27 210.13 1140.5 209.62 1140.54 209.53C1140.58 209.44 1140.54 209.41 1140.62 209.36L1141 208.78V208.8ZM1132.36 221.8C1138.18 221.8 1135.69 222.01 1137.64 217.96H1144.12C1144.28 218.68 1144.61 219.29 1144.86 220.09C1145.51 222.09 1145.09 221.8 1148.92 221.8C1150.14 221.8 1149.07 219.86 1148.3 217.86L1143.84 206.71C1143.47 206.009 1143.16 205.276 1142.92 204.52H1139.08C1138.17 206.13 1132.37 219.64 1132.33 221.76L1132.36 221.8Z" fill="#828382"/>
<path fill-rule="evenodd" clip-rule="evenodd" d="M510 209H510.48C510.739 209.961 511.074 210.901 511.48 211.81C511.796 212.83 512.17 213.832 512.6 214.81H508.04C508.17 213.25 509.84 210.54 509.96 209.05L510 209ZM502.32 221.72C506.32 221.72 505.67 222.03 506.26 220.14C506.558 219.415 506.766 218.656 506.88 217.88H513.6C513.69 218.88 514.53 220.54 514.8 221.72H518.88C518.88 219.42 513.23 206.44 512.16 204.44H508.32L502.22 219.94C501.92 220.71 501.17 221.76 502.32 221.76V221.72Z" fill="#828382"/>
<path fill-rule="evenodd" clip-rule="evenodd" d="M528.24 213.12C528.24 217.24 530.64 221.76 535.24 221.76C535.07 222.51 534.94 222.46 534.76 223.2C535.76 223.68 535.85 223.08 535.96 224.4C534.35 225.31 534.2 223.6 533.61 224.91C533.481 225.534 533.384 226.165 533.32 226.8C534.56 226.8 537.32 227.66 538.61 225.8C539.9 223.94 538.28 223.16 537.61 222.2C538.405 221.862 539.249 221.653 540.11 221.58C541.29 221.34 541.73 220.98 542.65 220.76C542.54 219.35 541.8 218.62 541.65 217.4C540.23 217.73 539.81 218.4 537.33 218.4C530.98 218.4 532.12 210.63 533.8 208.87C536.28 206.29 540.5 208.48 541.41 208.56C541.687 207.502 542.02 206.461 542.41 205.44C541.082 204.654 539.592 204.179 538.054 204.053C536.516 203.926 534.969 204.151 533.53 204.71C530.17 206 528.24 209.55 528.24 213.12Z" fill="#828382"/>
<path fill-rule="evenodd" clip-rule="evenodd" d="M816.72 208.8C817.42 209.31 817.65 210.6 818.03 211.58C818.506 212.613 818.875 213.692 819.13 214.8H814.56L816.72 208.8ZM812.4 221.8C812.867 220.542 813.267 219.26 813.6 217.96H820.08C820.73 219.17 820.95 220.6 821.52 221.8H825.61C825.271 220.245 824.779 218.728 824.14 217.27C823.14 214.44 820.14 206.96 818.88 204.52H815L808.56 220.69C808.15 221.83 807.65 221.76 812.4 221.76V221.8Z" fill="#828382"/>
<path fill-rule="evenodd" clip-rule="evenodd" d="M628.8 212.4H626.64V207.84C629.88 207.84 631.44 207.41 631.44 210.48C631.44 211.94 630.23 212.4 628.8 212.4ZM622.56 204.72V220.1C622.56 222.1 622.29 221.76 625.94 221.76C627.18 221.76 626.66 219.39 626.66 216C631.11 216 635.78 215.33 635.78 210C635.804 209.157 635.624 208.321 635.257 207.563C634.89 206.804 634.345 206.145 633.67 205.64C630.79 203.49 625.78 204.45 622.56 204.72Z" fill="#828382"/>
<path fill-rule="evenodd" clip-rule="evenodd" d="M694.8 208.8V209.8C694.8 215.19 702.72 213.42 702.72 217.24C702.72 218.74 700.14 218.44 699.12 218.44C697.12 218.44 696.88 217.8 695.52 217.44C695.25 218.62 694.6 219.32 694.52 220.8C697.05 221.39 701.12 223.32 705.05 220.8C705.76 220.248 706.312 219.518 706.65 218.684C706.988 217.85 707.1 216.942 706.974 216.051C706.848 215.16 706.489 214.318 705.934 213.61C705.378 212.903 704.646 212.354 703.81 212.02C701.32 210.89 698.81 210.79 698.81 208.83C698.81 206.41 705.01 208.35 705.05 208.35C705.484 207.345 705.819 206.3 706.05 205.23C701.11 202.81 694.8 204.24 694.8 208.8Z" fill="#828382"/>
<path fill-rule="evenodd" clip-rule="evenodd" d="M994.57 209.28C994.57 214.9 1002.73 214.06 1002.73 216.72C1002.73 218.81 1000.88 218.4 998.65 218.4C997.19 218.4 996.46 217.71 995.29 217.4C995.034 218.541 994.7 219.664 994.29 220.76C996.61 221.3 997.13 221.96 1000.29 221.96C1003.45 221.96 1006.77 220.6 1006.77 217.4C1006.77 211.75 1003.86 212.46 999.87 210.4C998.54 209.71 998.45 209.15 999.09 207.83C1002.51 207.03 1003.39 208.17 1005.09 208.31C1005.19 207.07 1005.76 206.4 1006.09 205.19C1004.39 204.8 1000.21 202.57 996.57 205.28C995.949 205.746 995.445 206.349 995.098 207.044C994.751 207.738 994.57 208.504 994.57 209.28Z" fill="#828382"/>
<path fill-rule="evenodd" clip-rule="evenodd" d="M477.36 212.88C477.36 220.66 482.68 222.88 489.02 221.66C490.28 221.41 490.8 221.02 491.76 220.8C491.35 219.704 491.016 218.581 490.76 217.44C488.93 217.87 489.22 218.44 485.96 218.44C480.87 218.44 480.73 211.31 482.9 208.9C485.07 206.49 489.48 208.51 490.52 208.6C490.73 207.524 491.066 206.477 491.52 205.48C484.56 201.76 477.36 205.61 477.36 212.88Z" fill="#828382"/>
<path fill-rule="evenodd" clip-rule="evenodd" d="M768.24 213.12C768.24 220.12 773.6 223.12 780.1 221.62C781.27 221.35 781.74 221.01 782.64 220.8C782.53 219.39 781.79 218.66 781.64 217.44C780.22 217.77 779.8 218.44 777.32 218.44C770.97 218.44 772.11 210.67 773.79 208.91C776.27 206.33 780.49 208.52 781.4 208.6C781.677 207.543 782.01 206.501 782.4 205.48C781.072 204.694 779.582 204.219 778.044 204.093C776.506 203.966 774.959 204.191 773.52 204.75C770.17 206 768.24 209.55 768.24 213.12Z" fill="#828382"/>
<path fill-rule="evenodd" clip-rule="evenodd" d="M1092.25 212.88C1092.25 224.98 1105.48 222.12 1106.41 220.56V220.32C1106.41 220.32 1106.41 220.1 1106.41 220.04L1105.41 217.44C1101.8 219.17 1096.52 219.2 1096.41 213.09C1096.35 210.25 1097.83 207.6 1100.88 207.6C1102.67 207.6 1103.77 208.23 1105.2 208.6C1105.65 207.6 1105.95 206.41 1106.4 205.48C1099.72 201.9 1092.25 205.2 1092.25 212.88Z" fill="#828382"/>
<path fill-rule="evenodd" clip-rule="evenodd" d="M1016.41 207.84H1021.41V221C1021.41 222.05 1022.41 221.72 1024.77 221.72C1025.32 221.72 1025.49 221.55 1025.49 221V207.8H1030.49V204.44H1016.33L1016.41 207.84Z" fill="#828382"/>
<path fill-rule="evenodd" clip-rule="evenodd" d="M836.41 221.76H847.21C848.27 221.76 847.93 220.64 847.93 218.16H840.48V205.16C840.48 204.05 839.14 204.44 836.41 204.44V221.76Z" fill="#828382"/>
<path fill-rule="evenodd" clip-rule="evenodd" d="M793.68 221.76C796.42 221.76 797.76 222.15 797.76 221.04V205.2C797.76 204.09 796.42 204.48 793.68 204.48V221.76Z" fill="#828382"/>
<path fill-rule="evenodd" clip-rule="evenodd" d="M1117.45 205.2V221C1117.45 222.05 1118.45 221.72 1120.81 221.72C1121.36 221.72 1121.53 221.55 1121.53 221V204.48C1118.79 204.48 1117.45 204.09 1117.45 205.2Z" fill="#828382"/>
<path fill-rule="evenodd" clip-rule="evenodd" d="M979 221C979 222.05 980 221.72 982.36 221.72C982.91 221.72 983.08 221.55 983.08 221V204.48H979V221Z" fill="#828382"/>
<path fill-rule="evenodd" clip-rule="evenodd" d="M562.8 199.92C561.8 199.92 557.8 197.55 556.8 201.6C557.31 202.233 557.97 202.728 558.72 203.04C559.35 200.71 561.38 202.8 563.04 202.8C564.39 202.8 565.64 201.24 565.92 200.16L564.24 198.96C563.71 199.32 563.4 199.92 562.8 199.92Z" fill="#828382"/>
<path fill-rule="evenodd" clip-rule="evenodd" d="M1042.57 201.6C1042.95 202.241 1043.43 202.809 1044.01 203.28C1044.91 203.04 1045.13 202.46 1046.41 201.6C1048.21 202.6 1048.01 203.17 1049.29 203.28C1049.61 202.07 1049.92 202.81 1050.29 201.6C1049.76 201.012 1049.18 200.47 1048.55 199.98C1047.87 199.468 1047.25 198.885 1046.69 198.24L1042.57 201.6Z" fill="#054C7D"/>
<path d="M168.849 96.8852C176.693 77.95 167.701 56.2418 148.766 48.3986C129.83 40.5554 108.122 49.5472 100.279 68.4824C92.4358 87.4176 101.428 109.126 120.363 116.969C139.298 124.812 161.006 115.82 168.849 96.8852Z" fill="#005C97"/>
</g>
<defs>
<clipPath id="clip0_32_2">
<rect width="1179.13" height="314.83" fill="white"/>
</clipPath>
</defs>
</svg>
